<svg width="20" height="20" viewBox="0 0 20 20" fill="none" xmlns="http://www.w3.org/2000/svg">
<g id="Group 163">
<g id="Group 162">
<path id="Vector" d="M1 10.7683V5.64993H19V10.7683C19 14.578 19 16.4829 17.8284 17.6664C16.6569 18.8499 14.7712 18.8499 11 18.8499H9.00004C5.22876 18.8499 3.34314 18.8499 2.17157 17.6664C1 16.4829 1 14.578 1 10.7683Z" stroke="#504B56" stroke-width="1.25" stroke-linecap="round" stroke-linejoin="round"/>
<path id="Vector_2" d="M1 5.64971L1.86538 3.80356C2.53654 2.37176 2.87211 1.65587 3.5523 1.25279C4.2325 0.849709 5.10501 0.849709 6.85 0.849709H13.15C14.895 0.849709 15.7674 0.849709 16.4477 1.25279C17.1279 1.65587 17.4635 2.37176 18.1346 3.80356L19 5.64971" stroke="#504B56" stroke-width="1.25" stroke-linecap="round"/>
<path id="Vector_3" d="M7.2998 9.24974H12.6998" stroke="#504B56" stroke-width="1.25" stroke-linecap="round"/>
</g>
</g>
</svg>
